<svg xmlns="http://www.w3.org/2000/svg" width="25.685" height="20.144" viewBox="0 0 25.685 20.144">
  <g id="ic-msg" transform="translate(0 -2.232)">
    <path id="Path_1996" data-name="Path 1996" d="M1823.161,1254.8h-21.437a2.131,2.131,0,0,0-2.124,2.124v15.9a2.131,2.131,0,0,0,2.124,2.124h21.437a2.13,2.13,0,0,0,2.124-2.124v-15.9A2.13,2.13,0,0,0,1823.161,1254.8Zm-.283,3.275-10.267,5.842a.535.535,0,0,1-.531,0l-10.09-5.735a.531.531,0,1,1,.531-.921l9.824,5.594,10-5.682a.542.542,0,0,1,.726.195A.492.492,0,0,1,1822.878,1258.075Z" transform="translate(-1799.6 -1252.568)" fill="#0d203b"/>
  </g>
</svg>
