<svg xmlns="http://www.w3.org/2000/svg" width="22.138" height="18.956" viewBox="0 0 22.138 18.956">
  <path id="Path_1997" data-name="Path 1997" d="M2265.574,2114.588a3.765,3.765,0,0,1-1.7-2.644s-.573-3.181-1.46-7.342a6.28,6.28,0,0,0-5.734-4.9v1.277a.575.575,0,0,1-.5.555h-.093a.549.549,0,0,1-.518-.555V2099.7a6.252,6.252,0,0,0-5.7,4.883c-.888,4.162-1.461,7.342-1.461,7.342a3.842,3.842,0,0,1-1.7,2.645,2.5,2.5,0,0,0-.333.24,1.989,1.989,0,0,0,.721,3.846h18.143a2,2,0,0,0,.7-3.865A1.213,1.213,0,0,1,2265.574,2114.588Z" transform="translate(-2245.101 -2099.7)" fill="#0d203b"/>
</svg>
